<svg width="134" height="214" viewBox="0 0 134 214" fill="none" xmlns="http://www.w3.org/2000/svg">
<path d="M93.7533 116.778C102.438 137.34 111.215 158.168 119.837 178.42H82.1431C81.3649 176.734 80.5868 174.946 79.7464 173.128C75.7621 163.697 71.8247 154.236 67.7782 144.835C67 143.135 67 141.184 67.7782 139.484C76.696 117.133 85.5359 94.7826 94.3292 72.4321C95.5898 69.0914 96.4147 65.6176 96.8037 62.0847C97.0839 58.6405 96.4458 55.1962 94.9361 52.0624C91.1076 43.1932 84.7889 36.6743 74.8284 33.8509C63.685 30.7023 47.0012 35.477 40.3401 46.9922C39.1106 49.106 38.3013 51.4268 37.0562 54.1763C31.718 41.9663 26.7845 30.0372 21.8509 17.9602C24.3721 15.1664 27.3136 12.7569 30.613 10.8205C39.3129 5.5137 49.0711 1.98078 59.2806 0.473004C67.6381 -0.591305 76.1513 0.147798 84.1819 2.6164C99.1227 6.71103 111.978 15.8612 120.32 28.3224C125.907 36.3787 129.331 45.6322 130.28 55.2406C132.101 72.3287 126.358 89.3724 114.437 102.277C108.741 108.486 101.675 113.438 93.7533 116.778Z" fill="black"/>
<path d="M134 214H0C17.5865 171.457 35.0019 129.299 52.5262 86.8745C63.1248 92.5508 73.1475 90.8509 83.6528 85.2633L45.9896 182.825H47.6237C58.9071 182.958 70.206 183.105 81.505 183.165H117.503C119.786 183.165 121.342 184.19 122.172 186.239C125.829 194.68 129.456 203.106 133.066 211.546C133.471 212.315 133.673 213.024 134 214Z" fill="black"/>
<path d="M35.1574 114.739C18.0688 104.716 6.22523 91.1907 3.11257 72.0479C-9.04672e-05 53.1417 4.57552 36.1275 18.2867 21.1533C19.2517 23.2967 20.0298 24.9966 20.7613 26.7261C25.4303 37.6944 30.2549 48.6332 34.8616 59.6458C35.6865 62.0701 36.3402 64.5387 36.8226 67.0368C37.7253 71.6784 39.7952 76.0391 42.8456 79.7642C43.9662 80.9615 45.1957 82.0406 46.5186 83.0162C48.355 84.4058 48.4484 84.3762 47.5924 86.4161C44.8066 93.0533 42.0208 99.6904 39.2038 106.328C38.2078 108.678 37.2273 111.043 36.2001 113.379C35.8888 113.852 35.5464 114.31 35.1574 114.739Z" fill="black"/>
</svg>
